<svg width="100" height="100" viewBox="0 0 100 100" fill="none" xmlns="http://www.w3.org/2000/svg">
<g clip-path="url(#clip0_1_2)">
<path d="M14.5181 46.849L37.6447 6.00638C38.3467 4.76658 39.6629 4 41.0895 4H82.0362C85.2166 4 87.0973 7.55586 85.3041 10.1779L65.2647 39.4753C63.4713 42.0974 65.3522 45.6533 68.5326 45.6533H73.1925C76.901 45.6533 78.5721 50.2887 75.714 52.6479L24.3248 95.0678C21.0941 97.7343 16.472 94.2125 18.1965 90.3981L32.699 58.3184C33.881 55.704 31.9656 52.7432 29.0923 52.7432H17.9628C14.9327 52.7432 13.0269 49.4824 14.5181 46.849Z" fill="#2B87D1"/>
</g>
<defs>
<clipPath id="clip0_1_2">
<rect width="72" height="92" fill="white" transform="translate(14 4)"/>
</clipPath>
</defs>
</svg>
